<svg version="1.1" id="Layer_1" xmlns="http://www.w3.org/2000/svg" xmlns:xlink="http://www.w3.org/1999/xlink" x="0px" y="0px"
	 width="100%" viewBox="0 0 2400 2271" enable-background="new 0 0 2400 2271" xml:space="preserve">
<path fill="#000000" opacity="1.000000" stroke="none" 
	d="
M938.000000,2274.000000 
	C759.291565,2274.000000 580.583069,2274.000000 400.437317,2273.508301 
	C395.948456,2271.764160 392.794281,2270.713379 389.862488,2269.224854 
	C374.615051,2261.483643 364.074951,2250.085693 361.701599,2231.995605 
	C361.467499,2230.985840 361.196655,2230.469238 360.664948,2229.083496 
	C360.453949,2223.495117 360.342743,2218.833984 360.342621,2214.172607 
	C360.334534,1866.900635 360.335236,1519.628662 360.335632,1172.356689 
	C360.335632,1169.690552 360.558533,1167.003052 360.300629,1164.362427 
	C359.724304,1158.461182 362.352783,1154.607178 366.746857,1150.746948 
	C408.754517,1113.843506 450.575989,1076.727783 492.414154,1039.631592 
	C554.924622,984.205933 617.377380,928.715210 679.907288,873.311462 
	C734.459106,824.976440 789.109436,776.752502 843.669128,728.426270 
	C905.709229,673.474426 967.684875,618.449768 1029.711548,563.482849 
	C1079.030518,519.777405 1128.373657,476.099213 1177.732666,432.439056 
	C1186.155029,424.989044 1194.711792,417.690918 1203.530029,410.041962 
	C1206.156738,412.112518 1208.288330,413.627167 1210.234375,415.351440 
	C1246.353149,447.355682 1282.415039,479.424438 1318.560791,511.398224 
	C1357.451050,545.799866 1396.474976,580.050415 1435.333618,614.487793 
	C1489.635132,662.611206 1543.783447,710.907410 1598.095215,759.019287 
	C1672.583862,825.005005 1747.194946,890.852600 1821.696899,956.823364 
	C1892.713135,1019.707458 1963.530884,1082.816895 2034.802612,1145.409668 
	C2043.048340,1152.651245 2046.575806,1159.747559 2046.566650,1170.829712 
	C2046.280518,1519.434448 2046.331909,1868.039551 2046.331299,2216.644531 
	C2046.331299,2219.310791 2046.427856,2221.981689 2046.302612,2224.642334 
	C2045.299927,2245.935059 2035.289917,2261.110596 2015.654053,2269.794434 
	C2013.001465,2270.967285 2010.546387,2272.587158 2008.000000,2274.000000 
	C1829.291504,2274.000000 1650.583130,2274.000000 1470.831787,2273.067871 
	C1469.748047,2267.141602 1469.671631,2262.147949 1469.671387,2257.154053 
	C1469.664917,2110.982666 1469.687988,1964.811157 1469.600708,1818.639648 
	C1469.596436,1811.356812 1469.274658,1803.963257 1468.010864,1796.813843 
	C1464.819946,1778.763184 1450.118042,1758.982178 1425.590088,1757.270264 
	C1420.668335,1756.444824 1416.357300,1756.029175 1412.046143,1756.028076 
	C1272.395264,1755.994019 1132.744507,1755.995850 993.093628,1756.018311 
	C988.768250,1756.019043 984.442871,1756.294556 979.395630,1756.530029 
	C978.075684,1756.906494 977.504333,1757.286621 976.875610,1757.469849 
	C951.875671,1764.754517 939.273987,1780.400024 937.810181,1806.112427 
	C937.602112,1809.768066 937.671997,1813.441528 937.671875,1817.106812 
	C937.665894,1965.076660 937.663940,2113.046387 937.680725,2261.016357 
	C937.681213,2265.344238 937.888916,2269.672119 938.000000,2274.000000 
z"/>
<path fill="#47704C" opacity="1.000000" stroke="none" 
	d="
M361.774048,2232.431396 
	C364.074951,2250.085693 374.615051,2261.483643 389.862488,2269.224854 
	C392.794281,2270.713379 395.948456,2271.764160 399.500000,2273.508301 
	C267.405457,2274.000000 134.810898,2274.000000 2.000000,2274.000000 
	C2.000000,1870.624878 2.000000,1467.249756 2.625816,1063.193115 
	C7.248034,1066.915161 11.278654,1071.288208 15.235363,1075.727295 
	C46.661114,1110.983276 78.059212,1146.263916 109.500465,1181.506104 
	C115.846916,1188.619751 122.340881,1195.601807 129.063492,1202.969727 
	C132.343842,1200.529175 134.853256,1198.935425 137.049377,1196.988281 
	C187.858307,1151.938843 238.607056,1106.821777 289.420776,1061.777710 
	C359.414642,999.731384 429.449402,937.731079 499.472992,875.718262 
	C563.517700,819.000427 627.557983,762.277649 691.624207,705.584229 
	C745.964050,657.497986 800.343628,609.456726 854.695618,561.384155 
	C895.089233,525.657410 935.482849,489.930756 975.846191,454.169891 
	C1008.735168,425.031250 1041.564575,395.825470 1074.446899,366.679291 
	C1115.297607,330.470123 1156.161377,294.275513 1197.057983,258.118073 
	C1203.017822,252.848862 1203.978149,252.817474 1210.479614,258.386230 
	C1220.841309,267.261658 1231.037231,276.332001 1241.245850,285.384613 
	C1286.325195,325.359375 1331.356323,365.388733 1376.458862,405.337250 
	C1415.826904,440.206451 1455.290649,474.967804 1494.669800,509.824402 
	C1543.522827,553.066895 1592.338501,596.351501 1641.158813,639.630798 
	C1686.490479,679.817444 1731.787720,720.042969 1777.135986,760.210754 
	C1819.495728,797.731445 1861.916382,835.182983 1904.284790,872.693726 
	C1946.157104,909.765442 1987.996216,946.874695 2029.852173,983.965088 
	C2069.462402,1019.065430 2109.081543,1054.156250 2148.685791,1089.263428 
	C2182.563477,1119.294067 2216.409180,1149.361084 2250.306396,1179.369629 
	C2259.186523,1187.230835 2268.206055,1194.934814 2277.321533,1202.850220 
	C2279.960938,1200.582153 2281.895752,1199.268555 2283.400146,1197.573242 
	C2302.181396,1176.408936 2320.861084,1155.155151 2339.645020,1133.993530 
	C2360.388184,1110.625000 2381.211670,1087.328125 2402.000000,1064.000000 
	C2402.000000,1467.113281 2402.000000,1870.226562 2402.000000,2274.000000 
	C2271.292236,2274.000000 2140.583496,2274.000000 2008.937256,2274.000000 
	C2010.546387,2272.587158 2013.001465,2270.967285 2015.654053,2269.794434 
	C2035.289917,2261.110596 2045.299927,2245.935059 2046.302612,2224.642334 
	C2046.427856,2221.981689 2046.331299,2219.310791 2046.331299,2216.644531 
	C2046.331909,1868.039551 2046.280518,1519.434448 2046.566650,1170.829712 
	C2046.575806,1159.747559 2043.048340,1152.651245 2034.802612,1145.409668 
	C1963.530884,1082.816895 1892.713135,1019.707458 1821.696899,956.823364 
	C1747.194946,890.852600 1672.583862,825.005005 1598.095215,759.019287 
	C1543.783447,710.907410 1489.635132,662.611206 1435.333618,614.487793 
	C1396.474976,580.050415 1357.451050,545.799866 1318.560791,511.398224 
	C1282.415039,479.424438 1246.353149,447.355682 1210.234375,415.351440 
	C1208.288330,413.627167 1206.156738,412.112518 1203.530029,410.041962 
	C1194.711792,417.690918 1186.155029,424.989044 1177.732666,432.439056 
	C1128.373657,476.099213 1079.030518,519.777405 1029.711548,563.482849 
	C967.684875,618.449768 905.709229,673.474426 843.669128,728.426270 
	C789.109436,776.752502 734.459106,824.976440 679.907288,873.311462 
	C617.377380,928.715210 554.924622,984.205933 492.414154,1039.631592 
	C450.575989,1076.727783 408.754517,1113.843506 366.746857,1150.746948 
	C362.352783,1154.607178 359.724304,1158.461182 360.300629,1164.362427 
	C360.558533,1167.003052 360.335632,1169.690552 360.335632,1172.356689 
	C360.335236,1519.628662 360.334534,1866.900635 360.342621,2214.172607 
	C360.342743,2218.833984 360.453949,2223.495117 360.694214,2229.528320 
	C361.033356,2231.493652 361.333008,2232.003906 361.774048,2232.431396 
z"/>
<path fill="#47704C" opacity="1.000000" stroke="none" 
	d="
M1210.000000,1.999992 
	C1607.183838,2.000000 2004.367676,2.000000 2402.000000,2.000000 
	C2402.000000,353.384888 2402.000000,704.769958 2401.368164,1056.849854 
	C2398.555420,1055.488892 2396.428467,1053.372925 2394.186768,1051.386475 
	C2347.612549,1010.118958 2301.033691,968.856445 2254.438232,927.612915 
	C2199.620850,879.091675 2144.792236,830.582825 2089.957520,782.081177 
	C2050.075684,746.805603 2010.144409,711.586365 1970.293335,676.276123 
	C1933.931274,644.057251 1897.661621,611.733948 1861.325439,579.485413 
	C1822.747437,545.247192 1784.152710,511.027802 1745.540527,476.828308 
	C1708.423584,443.953247 1671.260986,411.129791 1634.144043,378.254852 
	C1595.036621,343.617065 1555.976318,308.925934 1516.864380,274.293243 
	C1474.511597,236.790771 1432.111816,199.341232 1389.752563,161.845978 
	C1350.382812,126.996910 1311.006348,92.155174 1271.697510,57.237450 
	C1251.060181,38.905483 1230.561401,20.417482 1210.000000,1.999992 
z"/>
<path fill="#000000" opacity="1.000000" stroke="none" 
	d="
M1209.500000,1.999992 
	C1230.561401,20.417482 1251.060181,38.905483 1271.697510,57.237450 
	C1311.006348,92.155174 1350.382812,126.996910 1389.752563,161.845978 
	C1432.111816,199.341232 1474.511597,236.790771 1516.864380,274.293243 
	C1555.976318,308.925934 1595.036621,343.617065 1634.144043,378.254852 
	C1671.260986,411.129791 1708.423584,443.953247 1745.540527,476.828308 
	C1784.152710,511.027802 1822.747437,545.247192 1861.325439,579.485413 
	C1897.661621,611.733948 1933.931274,644.057251 1970.293335,676.276123 
	C2010.144409,711.586365 2050.075684,746.805603 2089.957520,782.081177 
	C2144.792236,830.582825 2199.620850,879.091675 2254.438232,927.612915 
	C2301.033691,968.856445 2347.612549,1010.118958 2394.186768,1051.386475 
	C2396.428467,1053.372925 2398.555420,1055.488892 2401.368164,1057.772217 
	C2402.000000,1059.500000 2402.000000,1061.000000 2402.000000,1063.250000 
	C2381.211670,1087.328125 2360.388184,1110.625000 2339.645020,1133.993530 
	C2320.861084,1155.155151 2302.181396,1176.408936 2283.400146,1197.573242 
	C2281.895752,1199.268555 2279.960938,1200.582153 2277.321533,1202.850220 
	C2268.206055,1194.934814 2259.186523,1187.230835 2250.306396,1179.369629 
	C2216.409180,1149.361084 2182.563477,1119.294067 2148.685791,1089.263428 
	C2109.081543,1054.156250 2069.462402,1019.065430 2029.852173,983.965088 
	C1987.996216,946.874695 1946.157104,909.765442 1904.284790,872.693726 
	C1861.916382,835.182983 1819.495728,797.731445 1777.135986,760.210754 
	C1731.787720,720.042969 1686.490479,679.817444 1641.158813,639.630798 
	C1592.338501,596.351501 1543.522827,553.066895 1494.669800,509.824402 
	C1455.290649,474.967804 1415.826904,440.206451 1376.458862,405.337250 
	C1331.356323,365.388733 1286.325195,325.359375 1241.245850,285.384613 
	C1231.037231,276.332001 1220.841309,267.261658 1210.479614,258.386230 
	C1203.978149,252.817474 1203.017822,252.848862 1197.057983,258.118073 
	C1156.161377,294.275513 1115.297607,330.470123 1074.446899,366.679291 
	C1041.564575,395.825470 1008.735168,425.031250 975.846191,454.169891 
	C935.482849,489.930756 895.089233,525.657410 854.695618,561.384155 
	C800.343628,609.456726 745.964050,657.497986 691.624207,705.584229 
	C627.557983,762.277649 563.517700,819.000427 499.472992,875.718262 
	C429.449402,937.731079 359.414642,999.731384 289.420776,1061.777710 
	C238.607056,1106.821777 187.858307,1151.938843 137.049377,1196.988281 
	C134.853256,1198.935425 132.343842,1200.529175 129.063492,1202.969727 
	C122.340881,1195.601807 115.846916,1188.619751 109.500465,1181.506104 
	C78.059212,1146.263916 46.661114,1110.983276 15.235363,1075.727295 
	C11.278654,1071.288208 7.248034,1066.915161 2.625816,1062.255737 
	C2.000000,1061.111084 2.000000,1060.222168 2.718210,1058.734863 
	C5.162708,1057.228394 7.150192,1056.617920 8.575547,1055.367065 
	C26.091167,1039.996216 43.546341,1024.556274 60.975079,1009.086792 
	C112.010490,963.788330 162.995117,918.432556 214.058487,873.165649 
	C283.803223,811.338013 353.600433,749.569519 423.378387,687.779358 
	C487.426636,631.062988 551.483032,574.355896 615.529053,517.636963 
	C685.554138,455.622803 755.559753,393.586548 825.595459,331.584259 
	C897.872986,267.597260 970.178955,203.642349 1042.467773,139.668076 
	C1094.316040,93.783356 1146.156250,47.889709 1198.000000,2.000021 
	C1198.000000,2.000000 1199.000000,2.000000 1199.811646,2.505046 
	C1203.653076,6.842923 1205.902954,4.979242 1208.000000,2.000000 
	C1208.000000,2.000000 1209.000000,2.000000 1209.500000,1.999992 
z"/>
<path fill="#47704C" opacity="1.000000" stroke="none" 
	d="
M1197.062744,2.000021 
	C1146.156250,47.889709 1094.316040,93.783356 1042.467773,139.668076 
	C970.178955,203.642349 897.872986,267.597260 825.595459,331.584259 
	C755.559753,393.586548 685.554138,455.622803 615.529053,517.636963 
	C551.483032,574.355896 487.426636,631.062988 423.378387,687.779358 
	C353.600433,749.569519 283.803223,811.338013 214.058487,873.165649 
	C162.995117,918.432556 112.010490,963.788330 60.975079,1009.086792 
	C43.546341,1024.556274 26.091167,1039.996216 8.575547,1055.367065 
	C7.150192,1056.617920 5.162708,1057.228394 2.718210,1058.068115 
	C2.000000,706.136780 2.000000,354.273499 2.000000,2.000000 
	C400.041687,2.000000 798.083557,2.000000 1197.062744,2.000021 
M661.495544,332.153656 
	C664.317017,254.163437 664.805664,162.469345 662.108521,154.054352 
	C658.516113,154.054352 654.585876,154.054352 650.655640,154.054352 
	C557.774963,154.054459 464.894257,154.051025 372.013550,154.069122 
	C368.689789,154.069763 365.366089,154.283188 361.241028,154.594009 
	C360.716064,154.928940 360.498505,155.404556 360.427673,157.886581 
	C360.397461,159.886093 360.340881,161.885605 360.340820,163.885117 
	C360.335907,306.877380 360.334167,449.869629 360.343964,592.861877 
	C360.344177,595.859680 360.481842,598.857422 360.361786,602.655640 
	C361.268158,603.037964 362.174530,603.420288 364.306976,603.129517 
	C389.739105,580.243774 415.191071,557.379944 440.597839,534.466003 
	C465.017456,512.442444 489.392395,490.369324 513.783020,468.313629 
	C543.840210,441.133850 573.911987,413.970093 603.941528,386.759766 
	C622.644531,369.812561 641.281006,352.791962 660.621826,335.411163 
	C661.041321,335.038116 661.233826,334.571442 661.495544,332.153656 
z"/>
<path fill="#47704C" opacity="1.000000" stroke="none" 
	d="
M938.937317,2274.000000 
	C937.888916,2269.672119 937.681213,2265.344238 937.680725,2261.016357 
	C937.663940,2113.046387 937.665894,1965.076660 937.671875,1817.106812 
	C937.671997,1813.441528 937.602112,1809.768066 937.810181,1806.112427 
	C939.273987,1780.400024 951.875671,1764.754517 976.875610,1757.469849 
	C977.504333,1757.286621 978.075684,1756.906494 980.176636,1756.755249 
	C985.980713,1757.258789 990.278259,1757.881348 994.583740,1757.941528 
	C1005.571960,1758.094849 1016.563660,1758.002441 1027.553955,1757.999023 
	C1160.436279,1757.958130 1293.318481,1757.915527 1426.200806,1757.873291 
	C1450.118042,1758.982178 1464.819946,1778.763184 1468.010864,1796.813843 
	C1469.274658,1803.963257 1469.596436,1811.356812 1469.600708,1818.639648 
	C1469.687988,1964.811157 1469.664917,2110.982666 1469.671387,2257.154053 
	C1469.671631,2262.147949 1469.748047,2267.141602 1469.894531,2273.067871 
	C1293.291504,2274.000000 1116.583130,2274.000000 938.937317,2274.000000 
z"/>
<path fill="#355439" opacity="1.000000" stroke="none" 
	d="
M1207.200073,2.000000 
	C1205.902954,4.979242 1203.653076,6.842923 1200.311646,2.505046 
	C1202.133423,2.000000 1204.266724,2.000000 1207.200073,2.000000 
z"/>
<path fill="#35704C" opacity="1.000000" stroke="none" 
	d="
M1425.590088,1757.270264 
	C1293.318481,1757.915527 1160.436279,1757.958130 1027.553955,1757.999023 
	C1016.563660,1758.002441 1005.571960,1758.094849 994.583740,1757.941528 
	C990.278259,1757.881348 985.980713,1757.258789 980.898499,1756.667114 
	C984.442871,1756.294556 988.768250,1756.019043 993.093628,1756.018311 
	C1132.744507,1755.995850 1272.395264,1755.994019 1412.046143,1756.028076 
	C1416.357300,1756.029175 1420.668335,1756.444824 1425.590088,1757.270264 
z"/>
<path fill="#121C13" opacity="1.000000" stroke="none" 
	d="
M361.701599,2231.995605 
	C361.333008,2232.003906 361.033356,2231.493652 360.845886,2230.455078 
	C361.196655,2230.469238 361.467499,2230.985840 361.701599,2231.995605 
z"/>
<path fill="#000000" opacity="1.000000" stroke="none" 
	d="
M659.947327,335.804321 
	C641.281006,352.791962 622.644531,369.812561 603.941528,386.759766 
	C573.911987,413.970093 543.840210,441.133850 513.783020,468.313629 
	C489.392395,490.369324 465.017456,512.442444 440.597839,534.466003 
	C415.191071,557.379944 389.739105,580.243774 363.070618,602.968994 
	C361.407959,602.490723 360.981659,602.172974 360.555389,601.855225 
	C360.481842,598.857422 360.344177,595.859680 360.343964,592.861877 
	C360.334167,449.869629 360.335907,306.877380 360.340820,163.885117 
	C360.340881,161.885605 360.397461,159.886093 360.783417,156.715332 
	C361.478271,155.191833 361.779327,154.809631 362.042358,154.397446 
	C365.366089,154.283188 368.689789,154.069763 372.013550,154.069122 
	C464.894257,154.051025 557.774963,154.054459 650.655640,154.054352 
	C654.585876,154.054352 658.516113,154.054352 662.108521,154.054352 
	C664.805664,162.469345 664.317017,254.163437 661.083313,333.337891 
	C660.352844,334.906006 660.111572,335.333405 659.947327,335.804321 
z"/>
<path fill="#121C13" opacity="1.000000" stroke="none" 
	d="
M360.458588,602.255432 
	C360.981659,602.172974 361.407959,602.490723 362.457581,603.305542 
	C362.174530,603.420288 361.268158,603.037964 360.458588,602.255432 
z"/>
<path fill="#121C13" opacity="1.000000" stroke="none" 
	d="
M361.641693,154.495728 
	C361.779327,154.809631 361.478271,155.191833 360.863770,155.782471 
	C360.498505,155.404556 360.716064,154.928940 361.641693,154.495728 
z"/>
<path fill="#121C13" opacity="1.000000" stroke="none" 
	d="
M660.284546,335.607727 
	C660.111572,335.333405 660.352844,334.906006 660.935181,334.266602 
	C661.233826,334.571442 661.041321,335.038116 660.284546,335.607727 
z"/>
</svg>