<svg width="22" height="25" viewBox="0 0 22 25" fill="none" xmlns="http://www.w3.org/2000/svg">
<path d="M15.2579 0.416659C15.7532 0.415454 16.1449 0.814005 16.146 1.34541L16.1472 2.2512C19.3609 2.51207 21.4839 4.78018 21.4873 8.25844L21.5 18.4396C21.5046 22.2319 19.2043 24.5652 15.5171 24.5712L6.51054 24.5833C2.8464 24.5881 0.517294 22.1993 0.512686 18.3961L0.500008 8.33453C0.495408 4.83333 2.54346 2.57125 5.75721 2.26569L5.75606 1.3599C5.7549 0.828497 6.13503 0.428739 6.64185 0.428739C7.14868 0.427532 7.5288 0.826082 7.52995 1.35748L7.53111 2.20289L14.3733 2.19323L14.3721 1.34782C14.371 0.81642 14.7511 0.41787 15.2579 0.416659ZM15.7279 17.5652H15.7164C15.1865 17.5785 14.7615 18.0386 14.773 18.5942C14.7741 19.1497 15.2015 19.6075 15.7314 19.6195C16.2716 19.6183 16.7093 19.1582 16.7082 18.5906C16.7082 18.0229 16.2693 17.5652 15.7279 17.5652ZM6.23639 17.5664C5.70652 17.5906 5.29185 18.0507 5.293 18.6063C5.31719 19.1618 5.7549 19.5966 6.28477 19.5712C6.80427 19.5471 7.21779 19.0869 7.1936 18.5314C7.18209 17.9879 6.75474 17.5652 6.23639 17.5664ZM10.9821 17.5604C10.4523 17.5857 10.0388 18.0447 10.0388 18.6002C10.0629 19.1558 10.5007 19.5894 11.0305 19.5652C11.5489 19.5398 11.9635 19.0809 11.9394 18.5241C11.9278 17.9819 11.5005 17.5592 10.9821 17.5604ZM6.23063 13.2186C5.70077 13.2427 5.28724 13.7029 5.28839 14.2584C5.31143 14.814 5.7503 15.2488 6.28016 15.2234C6.79851 15.1993 7.21203 14.7391 7.18785 14.1836C7.17633 13.6401 6.75013 13.2174 6.23063 13.2186ZM10.9775 13.1763C10.4477 13.2005 10.033 13.6606 10.0341 14.2162C10.0572 14.7717 10.4961 15.2053 11.0259 15.1811C11.5443 15.1558 11.9578 14.6968 11.9348 14.1413C11.9221 13.5978 11.4959 13.1751 10.9775 13.1763ZM15.7233 13.1824C15.1934 13.1944 14.7788 13.6413 14.7799 14.1968V14.2101C14.7914 14.7657 15.2291 15.1872 15.7602 15.1751C16.2785 15.1618 16.692 14.7017 16.6805 14.1461C16.6563 13.6147 16.2405 13.1811 15.7233 13.1824ZM14.3756 4.05313L7.53341 4.06279L7.53456 5.03985C7.53456 5.56038 7.15559 5.97101 6.64876 5.97101C6.14194 5.97221 5.76066 5.56279 5.76066 5.04226L5.75951 4.11231C3.51334 4.3454 2.27046 5.71255 2.27391 8.33211L2.27507 8.70772L19.7146 8.68356V8.26086C19.665 5.66424 18.4072 4.30192 16.1495 4.09903L16.1506 5.02898C16.1506 5.5483 15.7602 5.96014 15.2648 5.96014C14.758 5.96134 14.3767 5.55072 14.3767 5.03139L14.3756 4.05313Z" fill="#EF495D"/>
</svg>
